<svg xmlns="http://www.w3.org/2000/svg" viewBox="206 200 1635 1635">
  <defs>
    <linearGradient id="g" x1="1840.258343" y1="375.237972" x2="207.000006" y2="1783.000031" gradientUnits="userSpaceOnUse">
      <stop offset="0.00001" stop-color="#FFB340"/>
      <stop offset="1" stop-color="#FF3D68"/>
    </linearGradient>
  </defs>
  <path fill="url(#g)" d="M 261.744812 377.585449 C 234.273697 385.065063 218.226196 400.840454 209.930481 428.719727 C 208.162521 434.703613 207.754547 501.341309 207.346558 981.542114 C 206.666565 1587.810669 205.986603 1537.764282 215.778275 1557.619751 C 224.48201 1575.435059 246.105316 1591.754517 266.912659 1596.242432 C 272.760468 1597.602539 287.720001 1597.602539 333.550537 1596.378418 C 532.240173 1591.210571 690.539185 1618.953857 827.758789 1682.871826 C 871.005432 1702.999023 901.468384 1720.406494 950.8349 1753.453491 C 975.858093 1770.044922 990.817627 1777.796631 1005.233093 1781.196533 C 1014.888855 1783.508545 1032.432373 1783.644531 1041.952026 1781.332642 C 1052.967651 1778.748657 1077.174805 1766.509155 1094.582397 1754.813477 C 1229.082031 1664.240356 1352.430054 1621.537598 1535.616333 1601.818359 C 1585.118652 1596.378418 1606.470093 1595.698486 1694.323242 1595.970459 C 1750.48938 1596.242432 1781.088379 1595.834473 1785.440186 1594.882568 C 1810.191528 1589.306641 1831.678955 1567.68335 1838.070679 1541.708252 C 1840.110474 1533.684326 1840.246582 1484.590088 1840.246582 985.485962 C 1840.246582 382.889282 1840.926636 431.847534 1831.950806 413.488037 C 1823.111084 395.128784 1807.879639 383.841064 1783.808228 377.585449 C 1773.608521 375.001343 1770.480835 374.865356 1734.169922 375.681396 C 1619.389648 378.129395 1544.727783 384.38501 1457.418823 398.936768 C 1413.220093 406.280273 1361.405884 417.976074 1319.383179 430.215576 C 1196.850952 465.846436 1105.733887 513.036987 1040.048096 574.915039 C 991.633606 620.745483 960.626526 667.256104 937.507324 729.27002 C 922.683777 769.116821 915.612061 798.899902 909.084229 848.266235 C 907.044373 863.22583 906.772278 890.832886 906.364319 1082.994873 L 905.820313 1300.859863 L 919.827942 1318.131348 C 927.57959 1327.651123 942.675171 1346.69043 953.55481 1360.290039 C 964.434448 1374.025635 980.345947 1393.880859 989.049744 1404.624512 C 997.753357 1415.368164 1012.984863 1434.271729 1022.912598 1446.647217 C 1032.84021 1459.022827 1041.543945 1469.766602 1042.495972 1470.718506 C 1043.583984 1471.942383 1043.991943 1462.014771 1043.991943 1431.959717 C 1043.991943 1409.79248 1044.535889 1363.417847 1045.215942 1329.010986 C 1045.895874 1294.604004 1046.575928 1180.775635 1046.711914 1076.059082 C 1046.983887 874.513428 1047.119873 870.977539 1053.511719 834.938721 C 1058.407471 807.467651 1061.807373 794.547974 1064.119263 794.547974 C 1066.295288 794.547974 1074.590942 806.923706 1113.893799 868.665649 C 1124.501343 885.529053 1144.356689 916.536133 1157.956299 937.751343 C 1171.555908 958.830811 1186.651489 982.494019 1191.547241 990.109741 C 1196.307007 997.725586 1207.594727 1015.269043 1216.570435 1029.140625 C 1246.217529 1075.107056 1281.576294 1130.321289 1290.552124 1144.736816 C 1310.407471 1176.559814 1335.022583 1190.839355 1369.837524 1190.975342 C 1385.88501 1190.975342 1400.028564 1187.575439 1413.628174 1180.503662 C 1427.499756 1173.159912 1437.835449 1162.280273 1448.714966 1143.376831 C 1462.042603 1120.121582 1484.753906 1081.226929 1496.993408 1060.419678 C 1502.977295 1050.355713 1511.817017 1035.260254 1516.576904 1027.100586 C 1521.33667 1018.80481 1531.808472 1001.125366 1539.696167 987.661865 C 1547.719849 974.198242 1563.359375 947.543091 1574.375122 928.503662 C 1585.526733 909.464355 1597.494385 888.928955 1601.030151 882.94519 C 1611.90979 864.313721 1652.028564 795.091919 1666.852051 769.388794 C 1683.307495 740.96582 1691.331299 728.182251 1692.691284 728.454102 C 1693.643311 728.590088 1694.051147 852.618164 1694.051147 1097.4104 L 1694.051147 1466.366699 L 1669.571899 1466.638672 C 1568.5271 1467.726563 1464.08252 1478.062256 1381.26123 1495.061768 C 1329.03894 1505.80542 1271.104736 1522.532715 1221.466309 1541.164185 C 1172.23584 1559.523682 1105.869995 1591.754517 1063.167236 1617.865845 L 1055.143555 1622.761597 L 1052.967651 1619.361694 C 1051.743652 1617.593872 1036.376099 1597.602539 1018.832642 1575.027222 C 1001.289246 1552.451904 982.249817 1527.972656 976.674011 1520.628906 C 971.098267 1513.285156 957.906616 1496.149658 947.434998 1482.686035 C 936.963379 1469.086426 922.003845 1449.63916 914.116089 1439.303467 C 906.228333 1428.967773 891.132751 1409.384399 880.389099 1395.784912 C 869.645386 1382.321289 855.637939 1364.369873 849.246155 1356.210083 C 842.718323 1347.914429 833.062561 1335.674805 827.758789 1329.010986 C 822.454956 1322.211182 805.591492 1300.587891 790.359985 1280.732544 C 775.128418 1260.877197 759.760986 1241.021729 756.225037 1236.533936 C 749.833252 1228.510254 734.737793 1209.334839 699.106873 1163.640137 C 671.091797 1127.601318 617.91748 1058.923584 600.374023 1035.940308 C 594.934204 1028.868652 583.510559 1013.909058 574.806885 1002.757324 C 566.103149 991.469849 559.575317 981.814087 560.119324 980.998047 C 560.66333 980.182129 571.814941 967.806396 585.006531 953.662964 C 598.19812 939.383423 613.29364 923.199829 618.325439 917.624146 C 623.493286 912.04834 647.972534 885.665039 672.723755 859.145996 C 732.017883 795.635986 766.152771 758.781128 783.424255 739.469727 C 791.311951 730.901978 809.943359 710.638672 824.902893 694.591187 C 859.309753 657.73645 894.532654 619.657593 905.820313 607.01001 C 910.5802 601.706177 927.57959 583.482666 943.627075 566.483276 C 959.538574 549.483765 972.594177 535.068115 972.594177 534.388306 C 972.594177 532.620483 925.811646 507.053101 895.07666 492.093628 C 823.678894 457.414673 744.937439 431.031738 651.100403 410.496216 C 587.182495 396.352661 530.744202 388.057007 459.210571 381.937012 C 398.148499 376.769287 387.132843 376.225342 329.334686 375.545288 C 275.072388 375.001343 270.992523 375.137329 261.744812 377.585449 Z M 387.812836 505.557129 C 426.027588 507.597046 448.330872 509.501221 493.209442 514.396851 C 544.887817 520.108765 574.670898 524.460571 610.16571 531.532349 C 666.467957 542.956055 747.793396 566.075195 751.46521 571.923096 C 752.145203 573.011108 701.418823 627.817261 608.26178 726.550171 C 590.582397 745.181519 560.799316 776.732544 542.167908 796.587891 C 490.625549 851.122192 392.708649 956.110962 370.405365 980.590088 C 364.149567 987.525879 358.029755 994.46167 356.941772 996.093506 C 355.853851 997.861572 354.35788 998.949463 353.813873 998.541504 C 352.589935 997.861572 352.045959 507.325073 353.269897 505.421265 C 354.221893 503.925171 358.165771 503.925171 387.812836 505.557129 Z M 1662.36438 507.461182 C 1662.092285 508.821167 1659.508301 513.717041 1656.788452 518.34082 C 1651.076782 527.452515 1608.238037 599.666138 1569.615234 665.352173 C 1555.879761 688.471313 1533.168335 727.094116 1518.888794 751.029419 C 1504.745239 774.9646 1486.92981 804.883667 1479.450073 817.667236 C 1471.970337 830.314819 1463.266602 845.002319 1460.13855 850.306274 C 1457.010742 855.473999 1448.442993 870.161621 1441.099365 882.94519 C 1433.755493 895.592773 1420.427979 918.304077 1411.452271 933.26355 C 1402.476563 948.223022 1389.420898 970.526367 1382.349121 982.901978 C 1375.277344 995.277588 1369.021484 1005.885254 1368.477539 1006.429321 C 1367.253662 1007.653198 1343.318481 971.61438 1302.519653 906.744507 C 1286.744141 881.585205 1284.976318 878.865356 1241.185669 810.867432 C 1207.186768 758.101196 1186.923462 726.278198 1158.63623 681.127686 C 1141.636841 654.200439 1141.908813 657.872314 1156.868286 646.312744 C 1203.106812 610.817749 1260.633057 581.85083 1329.582886 559.547485 C 1362.765747 548.667969 1369.157593 547.035889 1409.820313 537.516235 C 1467.074463 524.188599 1550.71167 512.221069 1624.013428 506.917236 C 1634.893188 506.101074 1646.452637 505.285278 1649.852661 505.013184 C 1660.868286 504.197388 1662.772339 504.605225 1662.36438 507.461182 Z M 487.90564 1121.209595 C 502.049194 1139.569092 524.624451 1168.808105 538.223999 1186.07959 C 551.687622 1203.351074 570.046997 1227.01416 578.886719 1238.573853 C 599.014099 1264.821045 671.499756 1358.25 702.642761 1398.368774 C 729.02594 1432.231689 751.46521 1461.334839 769.144653 1484.590088 C 775.672485 1493.293701 787.096069 1508.117432 794.439819 1517.636963 C 801.78363 1527.02063 807.631409 1535.044434 807.22345 1535.316406 C 806.951416 1535.724487 799.743713 1533.548462 791.447998 1530.692505 C 721.546143 1506.349365 645.796631 1488.805908 570.046997 1479.422119 C 508.712952 1471.67041 440.579132 1467.046631 389.17276 1467.046631 C 371.629333 1467.046631 356.397797 1466.502563 355.445831 1465.958496 C 354.085876 1465.006714 353.677887 1438.351563 353.133911 1333.634766 L 352.725952 1202.534912 L 367.277466 1187.575439 C 384.004944 1170.439941 414.059998 1138.209106 441.259125 1108.290039 C 451.594788 1096.866333 460.570496 1087.618652 461.250458 1087.618652 C 461.794434 1087.618652 473.898071 1102.714111 487.90564 1121.209595 Z"/>
</svg>
